<mxfile host="app.diagrams.net" agent="Mozilla/5.0 (Macintosh; Intel Mac OS X 10_15_7) AppleWebKit/537.36 (KHTML, like Gecko) Chrome/130.0.0.0 Safari/537.36" version="25.0.3">
  <diagram name="Page-1" id="ppPyAXOfkpfWcB4G4wPp">
    <mxGraphModel dx="1644" dy="2173" grid="1" gridSize="10" guides="1" tooltips="1" connect="1" arrows="1" fold="1" page="1" pageScale="1" pageWidth="850" pageHeight="1100" math="0" shadow="0">
      <root>
        <mxCell id="0" />
        <mxCell id="1" parent="0" />
        <mxCell id="JH2x-BQg7wVUJ2I642Hd-27" style="edgeStyle=orthogonalEdgeStyle;rounded=0;orthogonalLoop=1;jettySize=auto;html=1;exitX=1;exitY=0.3333333333333333;exitDx=0;exitDy=0;exitPerimeter=0;entryX=0;entryY=0.5;entryDx=0;entryDy=0;" edge="1" parent="1" source="JH2x-BQg7wVUJ2I642Hd-14" target="JH2x-BQg7wVUJ2I642Hd-17">
          <mxGeometry relative="1" as="geometry">
            <Array as="points">
              <mxPoint x="160" y="150" />
              <mxPoint x="205" y="150" />
              <mxPoint x="205" y="30" />
            </Array>
          </mxGeometry>
        </mxCell>
        <mxCell id="JH2x-BQg7wVUJ2I642Hd-14" value="Admin" style="shape=umlActor;verticalLabelPosition=bottom;verticalAlign=top;html=1;outlineConnect=0;" vertex="1" parent="1">
          <mxGeometry x="130" y="210" width="30" height="60" as="geometry" />
        </mxCell>
        <mxCell id="JH2x-BQg7wVUJ2I642Hd-15" value="User management" style="ellipse;whiteSpace=wrap;html=1;" vertex="1" parent="1">
          <mxGeometry x="360" y="80" width="120" height="80" as="geometry" />
        </mxCell>
        <mxCell id="JH2x-BQg7wVUJ2I642Hd-16" value="Approve withdraw request" style="ellipse;whiteSpace=wrap;html=1;" vertex="1" parent="1">
          <mxGeometry x="460" y="190" width="120" height="80" as="geometry" />
        </mxCell>
        <mxCell id="JH2x-BQg7wVUJ2I642Hd-17" value="Stats" style="ellipse;whiteSpace=wrap;html=1;" vertex="1" parent="1">
          <mxGeometry x="250" y="-10" width="120" height="80" as="geometry" />
        </mxCell>
        <mxCell id="JH2x-BQg7wVUJ2I642Hd-18" value="Product Management" style="ellipse;whiteSpace=wrap;html=1;" vertex="1" parent="1">
          <mxGeometry x="520" y="310" width="120" height="80" as="geometry" />
        </mxCell>
        <mxCell id="JH2x-BQg7wVUJ2I642Hd-19" value="Search info shop and products" style="ellipse;whiteSpace=wrap;html=1;" vertex="1" parent="1">
          <mxGeometry x="510" y="430" width="120" height="80" as="geometry" />
        </mxCell>
        <mxCell id="JH2x-BQg7wVUJ2I642Hd-20" value="Convert product link to affiliate" style="ellipse;whiteSpace=wrap;html=1;" vertex="1" parent="1">
          <mxGeometry x="460" y="650" width="120" height="80" as="geometry" />
        </mxCell>
        <mxCell id="JH2x-BQg7wVUJ2I642Hd-21" value="Message" style="ellipse;whiteSpace=wrap;html=1;" vertex="1" parent="1">
          <mxGeometry x="490" y="540" width="120" height="80" as="geometry" />
        </mxCell>
        <mxCell id="JH2x-BQg7wVUJ2I642Hd-22" value="Send request withdraw" style="ellipse;whiteSpace=wrap;html=1;" vertex="1" parent="1">
          <mxGeometry x="380" y="760" width="120" height="80" as="geometry" />
        </mxCell>
        <mxCell id="JH2x-BQg7wVUJ2I642Hd-23" value="Forgot password" style="ellipse;whiteSpace=wrap;html=1;" vertex="1" parent="1">
          <mxGeometry x="290" y="850" width="120" height="80" as="geometry" />
        </mxCell>
        <mxCell id="JH2x-BQg7wVUJ2I642Hd-24" value="User" style="shape=umlActor;verticalLabelPosition=bottom;verticalAlign=top;html=1;outlineConnect=0;" vertex="1" parent="1">
          <mxGeometry x="140" y="540" width="30" height="60" as="geometry" />
        </mxCell>
        <mxCell id="JH2x-BQg7wVUJ2I642Hd-25" value="View and edit profile" style="ellipse;whiteSpace=wrap;html=1;" vertex="1" parent="1">
          <mxGeometry x="130" y="900" width="120" height="80" as="geometry" />
        </mxCell>
        <mxCell id="JH2x-BQg7wVUJ2I642Hd-26" value="" style="endArrow=classic;html=1;rounded=0;exitX=1;exitY=0.3333333333333333;exitDx=0;exitDy=0;exitPerimeter=0;" edge="1" parent="1" source="JH2x-BQg7wVUJ2I642Hd-14" target="JH2x-BQg7wVUJ2I642Hd-15">
          <mxGeometry width="50" height="50" relative="1" as="geometry">
            <mxPoint x="270" y="490" as="sourcePoint" />
            <mxPoint x="320" y="440" as="targetPoint" />
          </mxGeometry>
        </mxCell>
        <mxCell id="JH2x-BQg7wVUJ2I642Hd-28" value="" style="endArrow=classic;html=1;rounded=0;entryX=0;entryY=0.5;entryDx=0;entryDy=0;" edge="1" parent="1" source="JH2x-BQg7wVUJ2I642Hd-14" target="JH2x-BQg7wVUJ2I642Hd-16">
          <mxGeometry width="50" height="50" relative="1" as="geometry">
            <mxPoint x="170" y="240" as="sourcePoint" />
            <mxPoint x="330" y="450" as="targetPoint" />
            <Array as="points">
              <mxPoint x="170" y="230" />
            </Array>
          </mxGeometry>
        </mxCell>
        <mxCell id="JH2x-BQg7wVUJ2I642Hd-30" value="" style="endArrow=classic;html=1;rounded=0;exitX=1;exitY=0.3333333333333333;exitDx=0;exitDy=0;exitPerimeter=0;" edge="1" parent="1" source="JH2x-BQg7wVUJ2I642Hd-14">
          <mxGeometry width="50" height="50" relative="1" as="geometry">
            <mxPoint x="180" y="250" as="sourcePoint" />
            <mxPoint x="510" y="350" as="targetPoint" />
          </mxGeometry>
        </mxCell>
        <mxCell id="JH2x-BQg7wVUJ2I642Hd-31" value="" style="endArrow=classic;html=1;rounded=0;exitX=1;exitY=0.3333333333333333;exitDx=0;exitDy=0;exitPerimeter=0;entryX=0;entryY=0.5;entryDx=0;entryDy=0;" edge="1" parent="1" source="JH2x-BQg7wVUJ2I642Hd-14" target="JH2x-BQg7wVUJ2I642Hd-19">
          <mxGeometry width="50" height="50" relative="1" as="geometry">
            <mxPoint x="190" y="260" as="sourcePoint" />
            <mxPoint x="350" y="470" as="targetPoint" />
          </mxGeometry>
        </mxCell>
        <mxCell id="JH2x-BQg7wVUJ2I642Hd-32" value="" style="endArrow=classic;html=1;rounded=0;entryX=0;entryY=0.5;entryDx=0;entryDy=0;" edge="1" parent="1" target="JH2x-BQg7wVUJ2I642Hd-21">
          <mxGeometry width="50" height="50" relative="1" as="geometry">
            <mxPoint x="160" y="230" as="sourcePoint" />
            <mxPoint x="360" y="480" as="targetPoint" />
          </mxGeometry>
        </mxCell>
        <mxCell id="JH2x-BQg7wVUJ2I642Hd-33" value="" style="endArrow=classic;html=1;rounded=0;exitX=1;exitY=0.3333333333333333;exitDx=0;exitDy=0;exitPerimeter=0;" edge="1" parent="1" source="JH2x-BQg7wVUJ2I642Hd-24">
          <mxGeometry width="50" height="50" relative="1" as="geometry">
            <mxPoint x="210" y="280" as="sourcePoint" />
            <mxPoint x="490" y="580" as="targetPoint" />
          </mxGeometry>
        </mxCell>
        <mxCell id="JH2x-BQg7wVUJ2I642Hd-34" value="" style="endArrow=classic;html=1;rounded=0;exitX=1;exitY=0.3333333333333333;exitDx=0;exitDy=0;exitPerimeter=0;entryX=0;entryY=0.5;entryDx=0;entryDy=0;" edge="1" parent="1" source="JH2x-BQg7wVUJ2I642Hd-24" target="JH2x-BQg7wVUJ2I642Hd-20">
          <mxGeometry width="50" height="50" relative="1" as="geometry">
            <mxPoint x="220" y="290" as="sourcePoint" />
            <mxPoint x="380" y="500" as="targetPoint" />
          </mxGeometry>
        </mxCell>
        <mxCell id="JH2x-BQg7wVUJ2I642Hd-35" value="" style="endArrow=classic;html=1;rounded=0;exitX=1;exitY=0.3333333333333333;exitDx=0;exitDy=0;exitPerimeter=0;entryX=-0.003;entryY=0.344;entryDx=0;entryDy=0;entryPerimeter=0;" edge="1" parent="1" target="JH2x-BQg7wVUJ2I642Hd-22">
          <mxGeometry width="50" height="50" relative="1" as="geometry">
            <mxPoint x="170" y="560" as="sourcePoint" />
            <mxPoint x="330" y="770" as="targetPoint" />
          </mxGeometry>
        </mxCell>
        <mxCell id="JH2x-BQg7wVUJ2I642Hd-36" value="" style="endArrow=classic;html=1;rounded=0;entryX=0.5;entryY=0;entryDx=0;entryDy=0;exitX=1;exitY=0.3333333333333333;exitDx=0;exitDy=0;exitPerimeter=0;" edge="1" parent="1" source="JH2x-BQg7wVUJ2I642Hd-24" target="JH2x-BQg7wVUJ2I642Hd-25">
          <mxGeometry width="50" height="50" relative="1" as="geometry">
            <mxPoint x="180" y="570" as="sourcePoint" />
            <mxPoint x="240" y="880" as="targetPoint" />
          </mxGeometry>
        </mxCell>
        <mxCell id="JH2x-BQg7wVUJ2I642Hd-37" value="" style="endArrow=classic;html=1;rounded=0;exitX=1;exitY=0.3333333333333333;exitDx=0;exitDy=0;exitPerimeter=0;entryX=0.318;entryY=0.022;entryDx=0;entryDy=0;entryPerimeter=0;" edge="1" parent="1" target="JH2x-BQg7wVUJ2I642Hd-23">
          <mxGeometry width="50" height="50" relative="1" as="geometry">
            <mxPoint x="170" y="560" as="sourcePoint" />
            <mxPoint x="330" y="770" as="targetPoint" />
          </mxGeometry>
        </mxCell>
      </root>
    </mxGraphModel>
  </diagram>
</mxfile>
